# This file uses centimeters as units for non-parametric coordinates.

mtllib blood_1.mtl
g default
v 1.000000 0.375000 1.000000
v 1.000000 0.375000 0.000000
v 1.000000 0.000000 1.000000
v 1.000000 0.000000 0.000000
v 0.000000 0.375000 0.000000
v 0.000000 0.375000 1.000000
v 0.000000 0.000000 0.000000
v 0.000000 0.000000 1.000000
v 0.440009 0.512613 0.812500
v 0.440009 0.512613 0.187500
v 0.320420 0.223900 0.812500
v 0.320420 0.223900 0.187500
v 0.209039 0.608284 0.187500
v 0.209039 0.608284 0.812500
v 0.089450 0.319571 0.187500
v 0.089450 0.319571 0.812500
v 0.790961 0.608284 0.812500
v 0.790961 0.608284 0.187500
v 0.910550 0.319571 0.812500
v 0.910550 0.319571 0.187500
v 0.559991 0.512613 0.187500
v 0.559991 0.512613 0.812500
v 0.679580 0.223900 0.187500
v 0.679580 0.223900 0.812500
v 0.687500 1.000000 0.687500
v 0.687500 1.000000 0.312500
v 0.687500 0.625000 0.687500
v 0.687500 0.625000 0.312500
v 0.312500 1.000000 0.312500
v 0.312500 1.000000 0.687500
v 0.312500 0.625000 0.312500
v 0.312500 0.625000 0.687500
v 0.937500 0.937500 0.937500
v 0.937500 0.937500 0.062500
v 0.937500 0.375000 0.937500
v 0.937500 0.375000 0.062500
v 0.062500 0.937500 0.062500
v 0.062500 0.937500 0.937500
v 0.062500 0.375000 0.062500
v 0.062500 0.375000 0.937500
vt 0.468750 0.484375
vt 0.718750 0.484375
vt 0.718750 0.578125
vt 0.468750 0.578125
vt 0.000000 0.406250
vt 0.250000 0.406250
vt 0.250000 0.500000
vt 0.000000 0.500000
vt 0.468750 0.390625
vt 0.718750 0.390625
vt 0.718750 0.484375
vt 0.468750 0.484375
vt 0.000000 0.312500
vt 0.250000 0.312500
vt 0.250000 0.406250
vt 0.000000 0.406250
vt 0.250000 1.000000
vt 0.000000 1.000000
vt 0.000000 0.750000
vt 0.250000 0.750000
vt 0.250000 0.500000
vt 0.000000 0.500000
vt 0.000000 0.750000
vt 0.250000 0.750000
vt 0.187500 0.234375
vt 0.250000 0.234375
vt 0.250000 0.312500
vt 0.187500 0.312500
vt 0.250000 0.343750
vt 0.406250 0.343750
vt 0.406250 0.421875
vt 0.250000 0.421875
vt 0.687500 0.578125
vt 0.750000 0.578125
vt 0.750000 0.656250
vt 0.687500 0.656250
vt 0.406250 0.312500
vt 0.562500 0.312500
vt 0.562500 0.390625
vt 0.406250 0.390625
vt 0.062500 0.312500
vt 0.000000 0.312500
vt 0.000000 0.156250
vt 0.062500 0.156250
vt 0.750000 0.843750
vt 0.687500 0.843750
vt 0.687500 1.000000
vt 0.750000 1.000000
vt 0.718750 0.500000
vt 0.781250 0.500000
vt 0.781250 0.578125
vt 0.718750 0.578125
vt 0.562500 0.312500
vt 0.718750 0.312500
vt 0.718750 0.390625
vt 0.562500 0.390625
vt 0.718750 0.421875
vt 0.781250 0.421875
vt 0.781250 0.500000
vt 0.718750 0.500000
vt 0.250000 0.265625
vt 0.406250 0.265625
vt 0.406250 0.343750
vt 0.250000 0.343750
vt 0.125000 0.312500
vt 0.062500 0.312500
vt 0.062500 0.156250
vt 0.125000 0.156250
vt 0.187500 0.156250
vt 0.125000 0.156250
vt 0.125000 0.312500
vt 0.187500 0.312500
vt 0.687500 0.750000
vt 0.781250 0.750000
vt 0.781250 0.843750
vt 0.687500 0.843750
vt 0.687500 0.656250
vt 0.781250 0.656250
vt 0.781250 0.750000
vt 0.687500 0.750000
vt 0.406250 0.218750
vt 0.500000 0.218750
vt 0.500000 0.312500
vt 0.406250 0.312500
vt 0.500000 0.218750
vt 0.593750 0.218750
vt 0.593750 0.312500
vt 0.500000 0.312500
vt 0.687500 0.312500
vt 0.593750 0.312500
vt 0.593750 0.218750
vt 0.687500 0.218750
vt 0.781250 0.218750
vt 0.687500 0.218750
vt 0.687500 0.312500
vt 0.781250 0.312500
vt 0.250000 0.421875
vt 0.468750 0.421875
vt 0.468750 0.562500
vt 0.250000 0.562500
vt 0.468750 0.859375
vt 0.687500 0.859375
vt 0.687500 1.000000
vt 0.468750 1.000000
vt 0.468750 0.718750
vt 0.687500 0.718750
vt 0.687500 0.859375
vt 0.468750 0.859375
vt 0.468750 0.578125
vt 0.687500 0.578125
vt 0.687500 0.718750
vt 0.468750 0.718750
vt 0.468750 1.000000
vt 0.250000 1.000000
vt 0.250000 0.781250
vt 0.468750 0.781250
vt 0.468750 0.562500
vt 0.250000 0.562500
vt 0.250000 0.781250
vt 0.468750 0.781250
vn 0.000000 0.000000 -1.000000
vn 0.000000 0.000000 -1.000000
vn 0.000000 0.000000 -1.000000
vn 0.000000 0.000000 -1.000000
vn 1.000000 0.000000 0.000000
vn 1.000000 0.000000 0.000000
vn 1.000000 0.000000 0.000000
vn 1.000000 0.000000 0.000000
vn 0.000000 0.000000 1.000000
vn 0.000000 0.000000 1.000000
vn 0.000000 0.000000 1.000000
vn 0.000000 0.000000 1.000000
vn -1.000000 0.000000 0.000000
vn -1.000000 0.000000 0.000000
vn -1.000000 0.000000 0.000000
vn -1.000000 0.000000 0.000000
vn 0.000000 1.000000 0.000000
vn 0.000000 1.000000 0.000000
vn 0.000000 1.000000 0.000000
vn 0.000000 1.000000 0.000000
vn 0.000000 -1.000000 0.000000
vn 0.000000 -1.000000 0.000000
vn 0.000000 -1.000000 0.000000
vn 0.000000 -1.000000 0.000000
vn 0.000000 0.000000 -1.000000
vn 0.000000 0.000000 -1.000000
vn 0.000000 0.000000 -1.000000
vn 0.000000 0.000000 -1.000000
vn 0.923880 -0.382683 0.000000
vn 0.923880 -0.382683 0.000000
vn 0.923880 -0.382683 0.000000
vn 0.923880 -0.382683 0.000000
vn 0.000000 0.000000 1.000000
vn 0.000000 0.000000 1.000000
vn 0.000000 0.000000 1.000000
vn 0.000000 0.000000 1.000000
vn -0.923880 0.382683 0.000000
vn -0.923880 0.382683 0.000000
vn -0.923880 0.382683 0.000000
vn -0.923880 0.382683 0.000000
vn 0.382683 0.923880 0.000000
vn 0.382683 0.923880 0.000000
vn 0.382683 0.923880 0.000000
vn 0.382683 0.923880 0.000000
vn -0.382683 -0.923880 0.000000
vn -0.382683 -0.923880 0.000000
vn -0.382683 -0.923880 0.000000
vn -0.382683 -0.923880 0.000000
vn 0.000000 0.000000 -1.000000
vn 0.000000 0.000000 -1.000000
vn 0.000000 0.000000 -1.000000
vn 0.000000 0.000000 -1.000000
vn 0.923880 0.382683 0.000000
vn 0.923880 0.382683 0.000000
vn 0.923880 0.382683 0.000000
vn 0.923880 0.382683 0.000000
vn 0.000000 0.000000 1.000000
vn 0.000000 0.000000 1.000000
vn 0.000000 0.000000 1.000000
vn 0.000000 0.000000 1.000000
vn -0.923880 -0.382683 0.000000
vn -0.923880 -0.382683 0.000000
vn -0.923880 -0.382683 0.000000
vn -0.923880 -0.382683 0.000000
vn -0.382683 0.923880 0.000000
vn -0.382683 0.923880 0.000000
vn -0.382683 0.923880 0.000000
vn -0.382683 0.923880 0.000000
vn 0.382683 -0.923880 0.000000
vn 0.382683 -0.923880 0.000000
vn 0.382683 -0.923880 0.000000
vn 0.382683 -0.923880 0.000000
vn 0.000000 0.000000 -1.000000
vn 0.000000 0.000000 -1.000000
vn 0.000000 0.000000 -1.000000
vn 0.000000 0.000000 -1.000000
vn 1.000000 0.000000 0.000000
vn 1.000000 0.000000 0.000000
vn 1.000000 0.000000 0.000000
vn 1.000000 0.000000 0.000000
vn 0.000000 0.000000 1.000000
vn 0.000000 0.000000 1.000000
vn 0.000000 0.000000 1.000000
vn 0.000000 0.000000 1.000000
vn -1.000000 0.000000 0.000000
vn -1.000000 0.000000 0.000000
vn -1.000000 0.000000 0.000000
vn -1.000000 0.000000 0.000000
vn 0.000000 1.000000 0.000000
vn 0.000000 1.000000 0.000000
vn 0.000000 1.000000 0.000000
vn 0.000000 1.000000 0.000000
vn 0.000000 -1.000000 0.000000
vn 0.000000 -1.000000 0.000000
vn 0.000000 -1.000000 0.000000
vn 0.000000 -1.000000 0.000000
vn 0.000000 0.000000 -1.000000
vn 0.000000 0.000000 -1.000000
vn 0.000000 0.000000 -1.000000
vn 0.000000 0.000000 -1.000000
vn 1.000000 0.000000 0.000000
vn 1.000000 0.000000 0.000000
vn 1.000000 0.000000 0.000000
vn 1.000000 0.000000 0.000000
vn 0.000000 0.000000 1.000000
vn 0.000000 0.000000 1.000000
vn 0.000000 0.000000 1.000000
vn 0.000000 0.000000 1.000000
vn -1.000000 0.000000 0.000000
vn -1.000000 0.000000 0.000000
vn -1.000000 0.000000 0.000000
vn -1.000000 0.000000 0.000000
vn 0.000000 1.000000 0.000000
vn 0.000000 1.000000 0.000000
vn 0.000000 1.000000 0.000000
vn 0.000000 1.000000 0.000000
vn 0.000000 -1.000000 0.000000
vn 0.000000 -1.000000 0.000000
vn 0.000000 -1.000000 0.000000
vn 0.000000 -1.000000 0.000000
s 1
g Mesh
usemtl initialShadingGroup
f 4/1/1 7/2/2 2/4/3
f 2/4/3 7/2/2 5/3/4
s 2
f 3/5/5 4/6/6 1/8/7
f 1/8/7 4/6/6 2/7/8
s 3
f 8/9/9 3/10/10 6/12/11
f 6/12/11 3/10/10 1/11/12
s 4
f 7/13/13 8/14/14 5/16/15
f 5/16/15 8/14/14 6/15/16
s 5
f 6/17/17 1/18/18 5/20/19
f 5/20/19 1/18/18 2/19/20
s 6
f 7/21/21 4/22/22 8/24/23
f 8/24/23 4/22/22 3/23/24
s 7
f 12/25/25 15/26/26 10/28/27
f 10/28/27 15/26/26 13/27/28
s 8
f 11/29/29 12/30/30 9/32/31
f 9/32/31 12/30/30 10/31/32
s 9
f 16/33/33 11/34/34 14/36/35
f 14/36/35 11/34/34 9/35/36
s 10
f 15/37/37 16/38/38 13/40/39
f 13/40/39 16/38/38 14/39/40
s 11
f 14/41/41 9/42/42 13/44/43
f 13/44/43 9/42/42 10/43/44
s 12
f 15/45/45 12/46/46 16/48/47
f 16/48/47 12/46/46 11/47/48
s 13
f 20/49/49 23/50/50 18/52/51
f 18/52/51 23/50/50 21/51/52
s 14
f 19/53/53 20/54/54 17/56/55
f 17/56/55 20/54/54 18/55/56
s 15
f 24/57/57 19/58/58 22/60/59
f 22/60/59 19/58/58 17/59/60
s 16
f 23/61/61 24/62/62 21/64/63
f 21/64/63 24/62/62 22/63/64
s 17
f 22/65/65 17/66/66 21/68/67
f 21/68/67 17/66/66 18/67/68
s 18
f 23/69/69 20/70/70 24/72/71
f 24/72/71 20/70/70 19/71/72
s 19
f 28/73/73 31/74/74 26/76/75
f 26/76/75 31/74/74 29/75/76
s 20
f 27/77/77 28/78/78 25/80/79
f 25/80/79 28/78/78 26/79/80
s 21
f 32/81/81 27/82/82 30/84/83
f 30/84/83 27/82/82 25/83/84
s 22
f 31/85/85 32/86/86 29/88/87
f 29/88/87 32/86/86 30/87/88
s 23
f 30/89/89 25/90/90 29/92/91
f 29/92/91 25/90/90 26/91/92
s 24
f 31/93/93 28/94/94 32/96/95
f 32/96/95 28/94/94 27/95/96
s 25
f 36/97/97 39/98/98 34/100/99
f 34/100/99 39/98/98 37/99/100
s 26
f 35/101/101 36/102/102 33/104/103
f 33/104/103 36/102/102 34/103/104
s 27
f 40/105/105 35/106/106 38/108/107
f 38/108/107 35/106/106 33/107/108
s 28
f 39/109/109 40/110/110 37/112/111
f 37/112/111 40/110/110 38/111/112
s 29
f 38/113/113 33/114/114 37/116/115
f 37/116/115 33/114/114 34/115/116
s 30
f 39/117/117 36/118/118 40/120/119
f 40/120/119 36/118/118 35/119/120
